<svg width="16" height="16" viewBox="0 0 16 16" fill="none" xmlns="http://www.w3.org/2000/svg">
<g clip-path="url(#clip0_3806_2073)">
<path d="M4.99 10.5303C5.81 10.5303 6.48 11.2003 6.48 12.0203C6.48 12.8403 5.81 13.5103 4.99 13.5103C4.17 13.5103 3.5 12.8403 3.5 12.0203C3.5 11.2003 4.17 10.5303 4.99 10.5303ZM4.99 10.0303C3.89 10.0303 3 10.9203 3 12.0203C3 13.1203 3.89 14.0103 4.99 14.0103C6.09 14.0103 6.98 13.1203 6.98 12.0203C6.98 10.9203 6.09 10.0303 4.99 10.0303Z" fill="#3387C5"/>
<path d="M10 10.5303C10.83 10.5303 11.5 11.2003 11.5 12.0303C11.5 12.8603 10.83 13.5303 10 13.5303C9.17 13.5303 8.5 12.8603 8.5 12.0303C8.5 11.2003 9.17 10.5303 10 10.5303ZM10 10.0303C8.9 10.0303 8 10.9303 8 12.0303C8 13.1303 8.9 14.0303 10 14.0303C11.1 14.0303 12 13.1303 12 12.0303C12 10.9303 11.1 10.0303 10 10.0303Z" fill="#3387C5"/>
<path d="M11 13L13 15" stroke="#3387C5" stroke-miterlimit="10"/>
<path d="M10.5 10.5H9.5L8.43457 8.7334L8.95605 7.86328L10.5 10.5ZM4.93945 1L8.0918 6.38672L7.55664 7.2793L3.76953 1H4.93945Z" fill="#3387C5"/>
<path d="M11.0405 0.03L11.0005 0L10.9805 0.03H11.0405Z" fill="#3387C5"/>
<path d="M10.06 1L4.5 10.5H5.5L11.23 1H10.06Z" fill="#3387C5"/>
</g>
<defs>
<clipPath id="clip0_3806_2073">
<rect width="10.35" height="15.35" fill="white" transform="translate(3)"/>
</clipPath>
</defs>
</svg>
