<svg width="16" height="16" viewBox="0 0 16 16" fill="none" xmlns="http://www.w3.org/2000/svg">
<g clip-path="url(#clip0_3815_7274)">
<path d="M9.99973 3H8.99973C8.99973 3 9.41973 3.77 8.99973 4C8.49973 4.27 6.99973 4 6.99973 4V3H2.01973C2.01973 3 1.97973 15 2.01973 15H13.9997V3H9.99973ZM12.9997 14H2.99973V4H4.99973V6H10.9997V4H13.0197L12.9997 14Z" fill="#3387C5"/>
<path d="M8.56023 2C8.80023 2 9.00023 2.2 9.00023 2.44V3.57C9.00023 3.81 8.80023 4.01 8.56023 4.01H7.43023C7.19023 4.01 6.99023 3.81 6.99023 3.57V2.44C6.99023 2.2 7.19023 2 7.43023 2H8.56023ZM8.56023 1H7.43023C6.64023 1 5.99023 1.64 5.99023 2.44V3.57C5.99023 4.36 6.63023 5.01 7.43023 5.01H8.56023C9.35023 5.01 10.0002 4.37 10.0002 3.57V2.44C10.0002 1.65 9.36023 1 8.56023 1Z" fill="#3387C5"/>
</g>
<defs>
<clipPath id="clip0_3815_7274">
<rect width="12" height="14" fill="white" transform="translate(2 1)"/>
</clipPath>
</defs>
</svg>
