<svg width="28" height="28" viewBox="0 0 28 28" fill="none" xmlns="http://www.w3.org/2000/svg">
<g clip-path="url(#clip0_3814_5085)">
<path d="M26 2V26H2V2H26ZM28 0H0V28H28V0Z" fill="#ED8000"/>
<path d="M16 8C17.1046 8 18 7.10457 18 6C18 4.89543 17.1046 4 16 4C14.8954 4 14 4.89543 14 6C14 7.10457 14.8954 8 16 8Z" fill="#ED8000"/>
<path d="M13.4298 24H10.8498L14.2798 12.01C13.4398 12.06 10.0098 12.36 10.0098 14C10.0098 10.84 12.5998 10 14.5798 10H17.1598L13.7298 21.99C14.5698 21.94 17.9998 21.64 17.9998 20C17.9998 23.16 15.4098 24 13.4298 24Z" fill="#ED8000"/>
</g>
<defs>
<clipPath id="clip0_3814_5085">
<rect width="28" height="28" fill="white"/>
</clipPath>
</defs>
</svg>
