<svg width="16" height="16" viewBox="0 0 16 16" fill="none" xmlns="http://www.w3.org/2000/svg">
<g clip-path="url(#clip0_3808_3934)">
<path d="M8.24 3.00023C8.27 3.07023 8.3 3.14023 8.32 3.21023C8.35 3.30023 8.35 3.40023 8.36 3.49023C8.36 3.52023 8.36 3.55023 8.36 3.59023C8.36 3.68023 8.34 3.77023 8.32 3.86023C8.3 3.93023 8.28 3.99023 8.25 4.05023L11.99 4.01023V14.0102H2V4.00023L5.93 4.04023C5.93 4.04023 5.88 3.98023 5.86 3.94023C5.86 3.93023 5.85 3.92023 5.84 3.90023C5.81 3.83023 5.78 3.76023 5.76 3.69023C5.7 3.44023 5.74 3.20023 5.87 2.99023H1V14.9902H13V3.00023H8.24Z" fill="#3387C5"/>
<path d="M10.5 16C12.9853 16 15 13.9853 15 11.5C15 9.01472 12.9853 7 10.5 7C8.01472 7 6 9.01472 6 11.5C6 13.9853 8.01472 16 10.5 16Z" fill="#3387C5"/>
<path d="M11 11.2V14.5L10 13.4V11.2L8 9.52V9H13V9.55L11 11.2Z" fill="white"/>
<path d="M7.95047 4C7.93047 4.09 7.91047 4.18 7.87047 4.26C7.78047 4.47 7.72047 4.55 7.59047 4.7C7.52047 4.78 7.44047 4.82 7.36047 4.87C7.28047 4.92 7.18047 4.92 7.10047 4.94C7.01047 4.95 6.92047 4.92 6.84047 4.9C6.80047 4.9 6.77047 4.88 6.73047 4.86C6.57047 4.76 6.41047 4.65 6.29047 4.44C6.22047 4.32 6.16047 4.18 6.13047 4.02H3.98047V6.02H9.98047V4.02H7.93047L7.95047 4Z" fill="#3387C5"/>
<path d="M7 1C8.1 1 9 1.9 9 3C9 4.1 8.1 5 7 5C5.9 5 5 4.1 5 3C5 1.9 5.9 1 7 1ZM7 2C6.44772 2 6 2.44772 6 3C6 3.55228 6.44772 4 7 4C7.55228 4 8 3.55228 8 3C8 2.44772 7.55228 2 7 2Z" fill="#3387C5"/>
</g>
<defs>
<clipPath id="clip0_3808_3934">
<rect width="14" height="15" fill="white" transform="translate(1 1)"/>
</clipPath>
</defs>
</svg>
