<svg width="16" height="16" viewBox="0 0 16 16" fill="none" xmlns="http://www.w3.org/2000/svg">
<g clip-path="url(#clip0_3815_6482)">
<path d="M4.7 5.7L1 2" stroke="#3387C5" stroke-miterlimit="10"/>
<path d="M6 3H5V7H6V3Z" fill="#3387C5"/>
<path d="M6 6H2V7H6V6Z" fill="#3387C5"/>
<path d="M10 6L14 2" stroke="#3387C5" stroke-miterlimit="10"/>
<path d="M13 7V6H9V7H13Z" fill="#3387C5"/>
<path d="M10 7V3H9V7H10Z" fill="#3387C5"/>
<path d="M10 11L13.69 14.69" stroke="#3387C5" stroke-miterlimit="10"/>
<path d="M9 14H10V10H9V14Z" fill="#3387C5"/>
<path d="M9 11H13V10H9V11Z" fill="#3387C5"/>
<path d="M5 11L1 15" stroke="#3387C5" stroke-miterlimit="10"/>
<path d="M2 10V11H6V10H2Z" fill="#3387C5"/>
<path d="M5 10V14H6V10H5Z" fill="#3387C5"/>
</g>
<defs>
<clipPath id="clip0_3815_6482">
<rect width="12.71" height="12.71" fill="white" transform="translate(1 2)"/>
</clipPath>
</defs>
</svg>
