<svg width="16" height="16" viewBox="0 0 16 16" fill="none" xmlns="http://www.w3.org/2000/svg">
<g clip-path="url(#clip0_3815_6832)">
<path d="M8 1C4.135 1 1 4.135 1 8C1 11.865 4.135 15 8 15C8.86 15 9.5 13.5 8.5 12.5C8.065 12.065 8.5 11 10 11H11.5C13 11 15 9.5 15 8C15 4.135 11.865 1 8 1ZM3.75 8C3.06 8 2.5 7.44 2.5 6.75C2.5 6.06 3.06 5.5 3.75 5.5C4.44 5.5 5 6.06 5 6.75C5 7.44 4.44 8 3.75 8ZM6.25 5C5.56 5 5 4.44 5 3.75C5 3.06 5.56 2.5 6.25 2.5C6.94 2.5 7.5 3.06 7.5 3.75C7.5 4.44 6.94 5 6.25 5ZM9.75 5C9.06 5 8.5 4.44 8.5 3.75C8.5 3.06 9.06 2.5 9.75 2.5C10.44 2.5 11 3.06 11 3.75C11 4.44 10.44 5 9.75 5ZM12.25 8C11.56 8 11 7.44 11 6.75C11 6.06 11.56 5.5 12.25 5.5C12.94 5.5 13.5 6.06 13.5 6.75C13.5 7.44 12.94 8 12.25 8Z" fill="#3387C5"/>
</g>
<defs>
<clipPath id="clip0_3815_6832">
<rect width="14" height="14" fill="white" transform="translate(1 1)"/>
</clipPath>
</defs>
</svg>
