<svg width="16" height="16" viewBox="0 0 16 16" fill="none" xmlns="http://www.w3.org/2000/svg">
<g clip-path="url(#clip0_3815_9500)">
<path d="M8 4C11.61 4 13.42 7.39 13.92 8.5C13.42 9.61 11.61 13 8 13C4.39 13 2.58 9.61 2.08 8.5C2.58 7.39 4.39 4 8 4ZM8 3C3 3 1 8.5 1 8.5C1 8.5 3 14 8 14C13 14 15 8.5 15 8.5C15 8.5 13 3 8 3Z" fill="#3387C5"/>
<path d="M8.00023 5C7.73023 5 7.47023 5.04 7.22023 5.1C7.98023 5.34 8.54023 6.05 8.54023 6.9C8.54023 7.95 7.69023 8.8 6.64023 8.8C5.79023 8.8 5.09023 8.24 4.84023 7.48C4.78023 7.73 4.74023 7.99 4.74023 8.26C4.74023 10.05 6.20023 11.51 7.99023 11.51C9.78023 11.51 11.2402 10.05 11.2402 8.26C11.2402 6.47 9.78023 5.01 7.99023 5.01L8.00023 5Z" fill="#3387C5"/>
</g>
<defs>
<clipPath id="clip0_3815_9500">
<rect width="14" height="11" fill="white" transform="translate(1 3)"/>
</clipPath>
</defs>
</svg>
