<svg width="16" height="16" viewBox="0 0 16 16" fill="none" xmlns="http://www.w3.org/2000/svg">
<g clip-path="url(#clip0_3815_10118)">
<path d="M13 13V14H3V13H2V14.94C2 14.94 2.03 15 2.06 15H14V13H13Z" fill="#3387C5"/>
<path d="M3 6V2H10V5H13V6H14V4.59L10.41 1H2V6H3Z" fill="#3387C5"/>
<path d="M5.09 10.5C5.09 10.98 4.95 11.35 4.67 11.61C4.39 11.87 4.02 12 3.56 12C3.1 12 2.7 11.86 2.42 11.57C2.14 11.28 2 11.52 2 11H3C2.92 10.87 3 11.18 3 11C3.1 11.15 3.38 11.06 3.54 11.06C3.7 11.06 3.9 11.11 4 11C4.09 10.89 4.06 10.65 4.06 10.48C4.06 10.42 4.02 10.04 4 10C3.95 9.87 3.78 10.04 3.43 9.85C2.99 9.62 2.7 9.44 2.55 9.31C2.25 9.04 2.09 8.73 2.09 8.37C2.09 7.94 2.24 7.6 2.55 7.35C2.83 7.12 3.18 7 3.59 7C4 7 4.35 7.13 4.61 7.38C4.88 7.65 4.99 7.56 4.99 8H3.99C3.99 7.84 4.07 8.1 3.99 8C3.91 7.9 3.71 7.9 3.56 7.9C3.44 7.9 3.07 7.94 2.99 8C2.89 8.07 2.99 8.87 2.99 9C2.99 9.2 3.7 8.81 3.99 9C4.28 9.16 4.12 9.21 4.4 9.38C4.74 9.6 4.94 9.83 5.02 10.07C5.06 10.19 5.08 10.33 5.08 10.5H5.09Z" fill="#3388C6"/>
<path d="M11 11V12C10.54 12 9.22 11.27 9 11C8.67 11.27 8.41 12 8 12C7.44 12 6.97 11.76 6.58 11.27C6.19 10.78 6 10.19 6 9.49C6 8.79 6.19 8.2 6.58 7.72C6.97 7.24 7.44 7 8 7C8.56 7 9.04 7.24 9.42 7.72C9.8 8.2 10 8.79 10 9.5C10 10.05 9.88 10.54 9.63 10.97C9.78 11.05 10.82 11.01 11 11.01V11ZM8.24 7.99C7.88 7.99 7.24 7.7 7 8C6.76 8.3 6.98 9.09 6.98 9.49C6.98 9.89 6.76 10.69 7 11C7.24 11.3 7.89 11.01 8.24 11.01C8.59 11.01 8.76 11.31 9 11C9.23 10.71 9 10.41 9 10C9 9.59 9.24 8.29 9 8C8.76 7.71 8.61 7.99 8.24 7.99Z" fill="#3388C6"/>
<path d="M15 11.92L12 12V7H13V11L15 11.02V11.92Z" fill="#3388C6"/>
</g>
<defs>
<clipPath id="clip0_3815_10118">
<rect width="13" height="14" fill="white" transform="translate(2 1)"/>
</clipPath>
</defs>
</svg>
