<svg width="16" height="16" viewBox="0 0 16 16" fill="none" xmlns="http://www.w3.org/2000/svg">
<g clip-path="url(#clip0_3804_1739)">
<path d="M8.78977 2L8.93977 3.12L9.01977 3.71L9.57977 3.92C10.0398 4.09 10.4598 4.33 10.8298 4.63L11.2898 5L11.8398 4.78L12.9298 4.34L13.6998 5.66L12.7698 6.36L12.2898 6.72L12.3898 7.31C12.4298 7.56 12.4498 7.79 12.4498 7.99C12.4498 8.19 12.4298 8.41 12.3898 8.67L12.2898 9.26L12.7698 9.62L13.6998 10.32L12.9298 11.64L11.8398 11.2L11.2898 10.98L10.8298 11.35C10.4698 11.65 10.0498 11.89 9.57977 12.06L9.01977 12.27L8.93977 12.86L8.78977 13.98H7.21977L7.06977 12.86L6.98977 12.27L6.42977 12.06C5.96977 11.89 5.54977 11.65 5.17977 11.35L4.71977 10.98L4.16977 11.2L3.07977 11.64L2.30977 10.32L3.23977 9.62L3.71977 9.26L3.62977 8.67C3.58977 8.41 3.56977 8.2 3.56977 7.99C3.56977 7.78 3.58977 7.57 3.62977 7.31L3.72977 6.72L3.24977 6.36L2.31977 5.66L3.08977 4.34L4.17977 4.78L4.72977 5L5.18977 4.63C5.54977 4.33 5.96977 4.09 6.43977 3.92L6.99977 3.71L7.07977 3.12L7.22977 2H8.79977M9.65977 1H6.33977L6.06977 2.99C5.50977 3.2 4.99977 3.49 4.54977 3.86L2.65977 3.1L1.00977 5.93L2.64977 7.16C2.60977 7.43 2.57977 7.71 2.57977 8C2.57977 8.29 2.60977 8.56 2.64977 8.84L1.00977 10.07L2.65977 12.9L4.54977 12.14C4.99977 12.51 5.51977 12.8 6.06977 13.01L6.33977 15H9.65977L9.92977 13.01C10.4898 12.8 10.9998 12.51 11.4498 12.14L13.3398 12.9L14.9898 10.07L13.3498 8.84C13.3898 8.57 13.4198 8.29 13.4198 8C13.4198 7.71 13.3898 7.44 13.3498 7.16L14.9898 5.93L13.3398 3.1L11.4498 3.86C10.9998 3.49 10.4798 3.2 9.92977 2.99L9.65977 1Z" fill="#3387C5"/>
<path d="M8.00047 5.73047C9.25047 5.73047 10.2705 6.75047 10.2705 8.00047C10.2705 9.25047 9.25047 10.2705 8.00047 10.2705C6.75047 10.2705 5.73047 9.25047 5.73047 8.00047C5.73047 6.75047 6.75047 5.73047 8.00047 5.73047ZM8.00047 4.73047C6.20047 4.73047 4.73047 6.19047 4.73047 8.00047C4.73047 9.81047 6.19047 11.2705 8.00047 11.2705C9.81047 11.2705 11.2705 9.81047 11.2705 8.00047C11.2705 6.19047 9.81047 4.73047 8.00047 4.73047Z" fill="#3387C5"/>
</g>
<defs>
<clipPath id="clip0_3804_1739">
<rect width="14" height="14" fill="white" transform="translate(1 1)"/>
</clipPath>
</defs>
</svg>
