<svg width="16" height="16" viewBox="0 0 16 16" fill="none" xmlns="http://www.w3.org/2000/svg">
<g clip-path="url(#clip0_3806_1967)">
<path d="M13 13V14H3V13H2V14.94C2 14.94 2.03 15 2.06 15H14V13H13Z" fill="#3387C5"/>
<path d="M3 6V2H10V5H13V6H14V4.59L10.41 1H2V6H3Z" fill="#3387C5"/>
<path d="M3.54 12C2.83 12 2.23 11.76 1.74 11.27C1.25 10.78 1 10.19 1 9.49C1 8.79 1.25 8.2 1.74 7.72C2.23 7.24 2.83 7 3.54 7C4.25 7 4.86 7.24 5.34 7.72C5.83 8.2 6.07 8.79 6.07 9.5C6.07 10.21 5.83 10.8 5.34 11.28C4.85 11.76 4.25 12.01 3.54 12.01V12ZM3.54 7.99C3.14 7.99 2.8 8.14 2.52 8.44C2.25 8.74 2.11 9.09 2.11 9.5C2.11 9.91 2.25 10.26 2.52 10.56C2.79 10.86 3.13 11.01 3.54 11.01C3.95 11.01 4.3 10.86 4.57 10.55C4.83 10.26 4.96 9.9 4.96 9.49C4.96 9.08 4.83 8.72 4.56 8.43C4.29 8.14 3.95 7.99 3.54 7.99Z" fill="#3387C5"/>
<path d="M10.5198 10.46C10.5198 10.98 10.3398 11.38 9.9898 11.65C9.6798 11.88 9.2498 12 8.7098 12H7.0498V7H8.6898C9.1498 7 9.5198 7.1 9.7998 7.29C10.1198 7.52 10.2798 7.85 10.2798 8.3C10.2798 8.75 10.0898 9.1 9.7098 9.31C10.2498 9.49 10.5198 9.87 10.5198 10.46ZM9.1798 8.47C9.1798 8.16 8.9898 8.01 8.5998 8.01H8.1298V8.98H8.5498C8.9698 8.98 9.1798 8.81 9.1798 8.47ZM8.1298 9.87V10.99H8.7298C9.1998 10.99 9.4298 10.8 9.4298 10.43C9.4298 10.06 9.1998 9.87 8.7498 9.87H8.1298Z" fill="#3387C5"/>
<path d="M14.4101 10.32C14.4101 11.44 13.9401 12 12.9901 12C12.5801 12 12.2601 11.86 12.0101 11.57C11.7601 11.28 11.6401 10.91 11.6401 10.44H12.6701C12.6701 10.82 12.7901 11.01 13.0401 11.01C13.3001 11.01 13.4301 10.79 13.4301 10.34V7H14.4101V10.32Z" fill="#3387C5"/>
</g>
<defs>
<clipPath id="clip0_3806_1967">
<rect width="13.41" height="14" fill="white" transform="translate(1 1)"/>
</clipPath>
</defs>
</svg>
