<svg width="16" height="16" viewBox="0 0 16 16" fill="none" xmlns="http://www.w3.org/2000/svg">
<g clip-path="url(#clip0_3808_2584)">
<path d="M7.25 12.21C7.27 11.98 7.25 11.75 7.25 11.52C7.25 11.51 7.25 11.5 7.25 11.49C7.08 11.49 6.92 11.5 6.75 11.5C3.93 11.5 2.29 10.8 2 10.47V3.03C2.29 2.7 3.93 2 6.75 2C9.57 2 11.21 2.7 11.5 3.03V5.32C11.62 5.23 11.76 5.17 11.92 5.17C12.15 5.17 12.37 5.29 12.5 5.48V2.94C12.5 1.87 9.93 1 6.75 1C3.57 1 1 1.87 1 2.94V10.55C1 11.62 3.57 12.49 6.75 12.49C6.94 12.49 7.12 12.49 7.3 12.48C7.26 12.39 7.24 12.3 7.25 12.2V12.21Z" fill="#3387C5"/>
<path d="M6.75 2C9.87 2 11.5 3.07 11.5 3.44C11.5 3.81 9.87 4.88 6.75 4.88C3.63 4.88 2 3.82 2 3.44C2 3.06 3.63 2 6.75 2ZM6.75 1C3.57 1 1 2.09 1 3.44C1 4.79 3.57 5.88 6.75 5.88C9.93 5.88 12.5 4.79 12.5 3.44C12.5 2.09 9.93 1 6.75 1Z" fill="#3387C5"/>
<path d="M7.31 9.1998C7.13 9.1998 6.94 9.1998 6.75 9.1998C3.76 9.1998 2.09 8.4298 1.84 8.0798C1.57 7.9598 1.37 7.7698 1.22 7.5498C1.08 7.7198 1 7.8998 1 8.0798C1 9.1498 3.57 10.0198 6.75 10.0198C6.94 10.0198 7.13 10.0198 7.31 10.0198V9.1998Z" fill="#3387C5"/>
<path d="M7.23023 7.22953C7.23023 7.22953 7.23023 7.18953 7.23023 7.16953C7.07023 7.16953 6.91023 7.16953 6.74023 7.16953C3.75023 7.16953 2.08023 6.39953 1.83023 6.04953C1.56023 5.92953 1.36023 5.73953 1.21023 5.51953C1.07023 5.68953 0.990234 5.86953 0.990234 6.04953C0.990234 7.11953 3.56023 7.98953 6.74023 7.98953C6.90023 7.98953 7.06023 7.98953 7.22023 7.98953V7.22953H7.23023Z" fill="#3387C5"/>
<path d="M10.9399 6C12.6199 6 13.7199 6.41 13.9999 6.66V13.34C13.7099 13.59 12.6199 14 10.9399 14C9.25988 14 8.15988 13.59 7.87988 13.34V6.66C8.16988 6.41 9.25988 6 10.9399 6ZM10.9399 5C8.69988 5 6.87988 5.68 6.87988 6.53V13.47C6.87988 14.31 8.69988 15 10.9399 15C13.1799 15 14.9999 14.32 14.9999 13.47V6.53C14.9999 5.69 13.1799 5 10.9399 5Z" fill="#3387C5"/>
<path d="M7.5 9C8.24 9.45 9.55 9.74 11.05 9.74C12.43 9.74 13.66 9.49 14.42 9.1" stroke="#3387C5" stroke-miterlimit="10"/>
<path d="M7.5 11C8.24 11.45 9.55 11.74 11.05 11.74C12.43 11.74 13.66 11.49 14.42 11.1" stroke="#3387C5" stroke-miterlimit="10"/>
<path d="M7.5 7C8.24 7.45 9.55 7.74 11.05 7.74C12.43 7.74 13.66 7.49 14.42 7.1" stroke="#3387C5" stroke-miterlimit="10"/>
</g>
<defs>
<clipPath id="clip0_3808_2584">
<rect width="14" height="14" fill="white" transform="translate(1 1)"/>
</clipPath>
</defs>
</svg>
