<svg width="16" height="16" viewBox="0 0 16 16" fill="none" xmlns="http://www.w3.org/2000/svg">
<g clip-path="url(#clip0_3808_3055)">
<path d="M8 3C11.08 3 12.8 3.86 13 4.22V11.78C12.8 12.14 11.08 13 8 13C4.92 13 3.2 12.14 3 11.78V4.22C3.2 3.86 4.92 3 8 3ZM8 2C4.69 2 2 2.98 2 4.19V11.82C2 13.03 4.69 14.01 8 14.01C11.31 14.01 14 13.03 14 11.82V4.19C14 2.98 11.31 2 8 2Z" fill="#3387C5"/>
<path d="M8 3C11.05 3 13 4.18 13 5C13 5.82 11.05 7 8 7C4.95 7 3 5.82 3 5C3 4.18 4.95 3 8 3ZM8 2C4.69 2 2 3.34 2 5C2 6.66 4.69 8 8 8C11.31 8 14 6.66 14 5C14 3.34 11.31 2 8 2Z" fill="#3387C5"/>
<path d="M13.71 9.14965C13.58 9.41965 13.38 9.64965 13.12 9.80965C12.85 10.2096 11.12 11.0696 8 11.0696C4.88 11.0696 3.14 10.2096 2.88 9.80965C2.6 9.67965 2.39 9.46965 2.23 9.20965C2.08 9.39965 2 9.59965 2 9.80965C2 11.0196 4.69 11.9996 8 11.9996C11.31 11.9996 14 11.0196 14 9.80965C14 9.57965 13.9 9.34965 13.71 9.13965V9.14965Z" fill="#3387C5"/>
<path d="M13.71 7.14965C13.58 7.41965 13.38 7.64965 13.12 7.80965C12.85 8.20965 11.12 9.06965 8 9.06965C4.88 9.06965 3.14 8.20965 2.88 7.80965C2.6 7.67965 2.39 7.46965 2.23 7.20965C2.08 7.39965 2 7.59965 2 7.80965C2 9.01965 4.69 9.99965 8 9.99965C11.31 9.99965 14 9.01965 14 7.80965C14 7.57965 13.9 7.34965 13.71 7.13965V7.14965Z" fill="#3387C5"/>
<path d="M11.5 16C13.9853 16 16 13.9853 16 11.5C16 9.01472 13.9853 7 11.5 7C9.01472 7 7 9.01472 7 11.5C7 13.9853 9.01472 16 11.5 16Z" fill="#3387C5"/>
<path d="M12 9.14V8H11V9.14C11.18 9.1 11.3 9.07 11.5 9.07C11.7 9.07 11.82 9.1 12 9.14Z" fill="white"/>
<path d="M11 13.8604V15.0004H12V13.8604C11.82 13.9004 11.7 13.9304 11.5 13.9304C11.3 13.9304 11.18 13.9004 11 13.8604Z" fill="white"/>
<path d="M9 9H8V10.09L9.09 10.72C9.22 10.37 9.41 10.06 9.68 9.8L9 9.41V9Z" fill="white"/>
<path d="M13.3203 13.2003L14.0003 13.5903V14.0003H15.0003V12.9103L13.9103 12.2803C13.7903 12.6303 13.5903 12.9403 13.3203 13.2003Z" fill="white"/>
<path d="M15.0003 10.09V9H14.0003V9.41L13.3203 9.8C13.5903 10.06 13.7803 10.37 13.9103 10.72L15.0003 10.09Z" fill="white"/>
<path d="M8 12.9103V14.0003H9V13.5903L9.68 13.2003C9.41 12.9403 9.22 12.6303 9.09 12.2803L8 12.9103Z" fill="white"/>
<path d="M12.9204 11.5005C12.9204 11.5605 12.9104 11.6205 12.9004 11.6805L13.9104 12.2705C14.0004 12.0305 14.0604 11.7705 14.0604 11.5005C14.0604 11.2305 14.0004 10.9705 13.9104 10.7305L12.9004 11.3205C12.9004 11.3805 12.9204 11.4405 12.9204 11.5005Z" fill="white"/>
<path d="M10.6897 12.5998L9.67969 13.1898C10.0197 13.5198 10.4497 13.7498 10.9297 13.8498V12.7198C10.8497 12.6798 10.7597 12.6398 10.6897 12.5898V12.5998Z" fill="white"/>
<path d="M10.9297 10.2696V9.13965C10.4497 9.23965 10.0097 9.47965 9.67969 9.79965L10.6897 10.3896C10.7697 10.3396 10.8497 10.2996 10.9297 10.2596V10.2696Z" fill="white"/>
<path d="M12.3103 10.4004L13.3203 9.81039C12.9803 9.48039 12.5503 9.25039 12.0703 9.15039V10.2804C12.1603 10.3204 12.2403 10.3604 12.3103 10.4104V10.4004Z" fill="white"/>
<path d="M10.0804 11.5005C10.0804 11.4405 10.0904 11.3805 10.1004 11.3205L9.09043 10.7305C9.00043 10.9705 8.94043 11.2305 8.94043 11.5005C8.94043 11.7705 9.00043 12.0305 9.09043 12.2705L10.1004 11.6805C10.1004 11.6205 10.0804 11.5605 10.0804 11.5005Z" fill="white"/>
<path d="M12.0703 12.7304V13.8604C12.5503 13.7604 12.9903 13.5204 13.3203 13.2004L12.3103 12.6104C12.2303 12.6604 12.1503 12.7004 12.0703 12.7404V12.7304Z" fill="white"/>
<path d="M11.4997 12.8502C11.2997 12.8502 11.1097 12.8102 10.9297 12.7402V13.8702C11.1097 13.9102 11.2997 13.9402 11.4997 13.9402C11.6997 13.9402 11.8797 13.9102 12.0697 13.8702V12.7402C11.8997 12.8102 11.6997 12.8502 11.4997 12.8502Z" fill="white"/>
<path d="M11.4997 10.1496C11.6997 10.1496 11.8897 10.1896 12.0697 10.2596V9.12957C11.8897 9.08957 11.6997 9.05957 11.4997 9.05957C11.2997 9.05957 11.1197 9.08957 10.9297 9.12957V10.2596C11.0997 10.1896 11.2997 10.1496 11.4997 10.1496Z" fill="white"/>
<path d="M10.6898 10.3996L9.67984 9.80957C9.40984 10.0696 9.21984 10.3796 9.08984 10.7296L10.0998 11.3196C10.1598 10.9396 10.3698 10.6096 10.6898 10.3996Z" fill="white"/>
<path d="M12.8996 11.6797C12.8396 12.0597 12.6296 12.3897 12.3096 12.5997L13.3196 13.1897C13.5896 12.9297 13.7796 12.6197 13.9096 12.2697L12.8996 11.6797Z" fill="white"/>
<path d="M10.0998 11.6797L9.08984 12.2697C9.21984 12.6197 9.40984 12.9297 9.67984 13.1897L10.6898 12.5997C10.3698 12.3897 10.1498 12.0597 10.0998 11.6797Z" fill="white"/>
<path d="M12.8996 11.3196L13.9096 10.7296C13.7896 10.3796 13.5896 10.0696 13.3196 9.80957L12.3096 10.3996C12.6296 10.6096 12.8496 10.9396 12.8996 11.3196Z" fill="white"/>
</g>
<defs>
<clipPath id="clip0_3808_3055">
<rect width="14" height="14" fill="white" transform="translate(2 2)"/>
</clipPath>
</defs>
</svg>
