<svg width="16" height="16" viewBox="0 0 16 16" fill="none" xmlns="http://www.w3.org/2000/svg">
<g clip-path="url(#clip0_3808_3443)">
<path d="M12.17 2C12.7 2 13.21 2.21 13.58 2.59C13.95 2.97 14.17 3.47 14.17 4C14.17 4.53 13.96 5.04 13.58 5.41L6.79 12.2L2.57 13.48L3.95 9.39L10.75 2.59C11.13 2.21 11.63 2 12.16 2M12.17 1C11.4 1 10.63 1.29 10.05 1.88L3.08 8.85L1 15L7.32 13.09L14.29 6.12C15.46 4.95 15.46 3.05 14.29 1.88C13.7 1.29 12.94 1 12.17 1Z" fill="#3387C5"/>
<path d="M9.68945 3.64648L12.8714 6.82846L9.68945 3.64648Z" stroke="#3387C5" stroke-width="2" stroke-miterlimit="10"/>
<path d="M11.46 5.41804L10.7529 4.71094L6.96284 8.50103L7.66994 9.20814L11.46 5.41804Z" fill="#3387C5"/>
<path d="M3.42969 9.19961L7.31969 8.84961L6.82969 12.6096" stroke="#3387C5" stroke-miterlimit="10"/>
</g>
<defs>
<clipPath id="clip0_3808_3443">
<rect width="14.17" height="14" fill="white" transform="translate(1 1)"/>
</clipPath>
</defs>
</svg>
