<svg width="16" height="16" viewBox="0 0 16 16" fill="none" xmlns="http://www.w3.org/2000/svg">
<g clip-path="url(#clip0_3815_8127)">
<path d="M7 3.41L8.59 5L7 6.59V6H4.86H4.72C3.88 6 2.93 6.12 2.23 7.56C2.21 7.61 2.18 7.66 2.16 7.71C2.06 7.49 2.01 7.23 2.01 6.93C2.01 4.79 3.21 4.01 4.01 4.01H7.01V3.42M6 1V3H4C2.64 3 1 4.23 1 6.92C1 9.61 4 10 4 10C4 10 2.61 9.02 3.12 8C3.58 7.06 4.07 7 4.72 7C4.81 7 4.91 7 5.01 7H6.01V9L10.01 5L6 1Z" fill="#3388C6"/>
<path d="M13.8502 8.29C13.9502 8.51 14.0002 8.77 14.0002 9.07C14.0002 11.21 12.8002 11.99 12.0002 11.99H9.00023V12.58L7.41023 10.99L9.00023 9.4V9.99H11.1402H11.2802C12.1202 9.99 13.0702 9.87 13.7702 8.43C13.7902 8.38 13.8202 8.33 13.8402 8.28M12.0002 6C12.0002 6 13.3902 6.98 12.8802 8C12.4202 8.94 11.9302 9 11.2802 9C11.1902 9 11.0902 9 10.9902 9H9.99023V7L5.99023 11L9.99023 15V13H11.9902C13.3502 13 14.9902 11.77 14.9902 9.08C14.9902 6.39 11.9902 6 11.9902 6H12.0002Z" fill="#3388C6"/>
</g>
<defs>
<clipPath id="clip0_3815_8127">
<rect width="14" height="14" fill="white" transform="translate(1 1)"/>
</clipPath>
</defs>
</svg>
