<svg width="16" height="16" viewBox="0 0 16 16" fill="none" xmlns="http://www.w3.org/2000/svg">
<g clip-path="url(#clip0_3821_10275)">
<path d="M11.5 16C13.9853 16 16 13.9853 16 11.5C16 9.01472 13.9853 7 11.5 7C9.01472 7 7 9.01472 7 11.5C7 13.9853 9.01472 16 11.5 16Z" fill="#3387C5"/>
<path d="M11.5 10.5C10.95 10.5 10.5 10.95 10.5 11.5C10.5 12.05 10.95 12.5 11.5 12.5C12.05 12.5 12.5 12.05 12.5 11.5C12.5 10.95 12.05 10.5 11.5 10.5Z" fill="white"/>
<path d="M8.77002 11.5C8.77002 11.1 8.93002 10.58 10 9H9.00002C7.85002 10.74 7.77002 10.9 7.77002 11.5C7.77002 12.1 8.76002 13.49 9.00002 14H10C9.85002 13.65 8.77002 11.9 8.77002 11.5Z" fill="white"/>
<path d="M14.23 11.5C14.23 11.9 13.15 13.65 13 14H14C14.24 13.49 15.23 12.1 15.23 11.5C15.23 10.9 14.24 9.51 14 9H13C13.15 9.35 14.23 11.1 14.23 11.5Z" fill="white"/>
<path d="M4.23 11.5402C2.88 10.5902 2 9.02016 2 7.25016C2 4.84016 3.64 2.80016 5.86 2.19016V1.16016C3.08 1.79016 1 4.28016 1 7.25016C1 9.36016 2.05 11.2202 3.65 12.3502C3.76 12.0302 3.98 11.7602 4.23 11.5402Z" fill="#3387C5"/>
<path d="M12.5001 7.24992C12.5001 7.54992 12.4701 7.82992 12.4201 8.11992C12.5101 8.08992 12.6101 8.06992 12.7301 8.05992C12.9901 8.03992 13.2301 8.10992 13.4101 8.24992C13.4601 7.91992 13.5001 7.58992 13.5001 7.24992C13.5001 4.58992 11.8401 2.32992 9.50014 1.41992C9.53014 1.54992 9.52014 1.68992 9.45014 1.79992C9.37014 1.91992 9.29014 2.03992 9.22014 2.16992C9.20014 2.19992 9.18014 2.23992 9.17014 2.26992C9.17014 2.26992 9.17014 2.28992 9.16014 2.29992C9.16014 2.31992 9.15014 2.33992 9.14014 2.35992C11.1101 3.11992 12.5101 5.01992 12.5101 7.25992L12.5001 7.24992Z" fill="#3387C5"/>
<path d="M5 9L1 13H5V9Z" fill="#3387C5"/>
<path d="M13 1H9V5L13 1Z" fill="#3387C5"/>
</g>
<defs>
<clipPath id="clip0_3821_10275">
<rect width="15" height="15" fill="white" transform="translate(1 1)"/>
</clipPath>
</defs>
</svg>
