<svg width="16" height="16" viewBox="0 0 16 16" fill="none" xmlns="http://www.w3.org/2000/svg">
<g clip-path="url(#clip0_5610_2015)">
<path d="M13 13V14H3V13H2V15H14V13H13Z" fill="#3387C5"/>
<path d="M3 6V2H10V5H13V6H14V4.59L10.41 1H2V6H3Z" fill="#3387C5"/>
<path d="M4 10.4202C3.85 10.9002 3.61 11.2802 3.28 11.5602C2.94 11.8502 2.54 12.0002 2.09 12.0002C1.51 12.0002 1.02 11.7802 0.61 11.3402C0.2 10.9002 0 10.3702 0 9.73023C0 9.09023 0.2 8.58023 0.6 8.14023C1 7.70023 1.49 7.49023 2.06 7.49023C2.53 7.49023 2.94 7.63023 3.28 7.91023C3.63 8.19023 3.86 8.58023 4 9.08023H3.04C2.82 8.61023 2.49 8.37023 2.06 8.37023C1.72 8.37023 1.45 8.50023 1.23 8.76023C1.01 9.02023 0.91 9.34023 0.91 9.71023C0.91 10.0802 1.02 10.4002 1.24 10.6802C1.46 10.9602 1.73 11.1002 2.07 11.1002C2.51 11.1002 2.84 10.8702 3.05 10.4102H4.01L4 10.4202Z" fill="#3387C5"/>
<path d="M6.74047 11.99C6.11047 11.99 5.58047 11.77 5.14047 11.34C4.70047 10.91 4.48047 10.37 4.48047 9.74C4.48047 9.11 4.70047 8.58 5.14047 8.15C5.58047 7.72 6.11047 7.5 6.74047 7.5C7.37047 7.5 7.91047 7.71 8.34047 8.14C8.77047 8.57 8.99047 9.1 8.99047 9.74C8.99047 10.38 8.77047 10.91 8.34047 11.34C7.91047 11.77 7.37047 11.99 6.74047 11.99ZM6.74047 8.39C6.38047 8.39 6.08047 8.52 5.83047 8.79C5.59047 9.06 5.46047 9.37 5.46047 9.74C5.46047 10.11 5.58047 10.42 5.83047 10.69C6.07047 10.96 6.38047 11.1 6.74047 11.1C7.10047 11.1 7.41047 10.96 7.66047 10.69C7.89047 10.43 8.01047 10.11 8.01047 9.74C8.01047 9.37 7.89047 9.05 7.65047 8.79C7.41047 8.53 7.11047 8.4 6.74047 8.4V8.39Z" fill="#3387C5"/>
<path d="M13 9.75C13 10.48 12.81 11.05 12.42 11.44C12.04 11.82 11.52 12 10.84 12H9.5V7.5H10.99C11.62 7.5 12.11 7.7 12.47 8.11C12.83 8.52 13.01 9.06 13.01 9.75H13ZM12.07 9.77C12.07 9.35 11.98 9.02 11.79 8.79C11.59 8.54 11.31 8.41 10.93 8.41H10.42V11.1H10.92C11.68 11.1 12.06 10.66 12.06 9.77H12.07Z" fill="#3387C5"/>
<path d="M16 12H13.5V7.5H16V8.41H14.5V9.5H15.97V10.41H14.5V11.08H16V12Z" fill="#3387C5"/>
</g>
<defs>
<clipPath id="clip0_5610_2015">
<rect width="16" height="14" fill="white" transform="translate(0 1)"/>
</clipPath>
</defs>
</svg>
