<svg width="16" height="16" viewBox="0 0 16 16" fill="none" xmlns="http://www.w3.org/2000/svg">
<g clip-path="url(#clip0_5610_1914)">
<path d="M13 13V14H3V13H2V15H14V13H13Z" fill="#3387C5"/>
<path d="M3 6V2H10V5H13V6H14V4.59L10.41 1H2V6H3Z" fill="#3387C5"/>
<path d="M5.85 10.1402C5.67 10.6502 5.38 11.0602 4.97 11.3602C4.55 11.6702 4.07 11.8302 3.53 11.8302C2.83 11.8302 2.23 11.5902 1.74 11.1202C1.25 10.6502 1 10.0702 1 9.39023C1 8.71023 1.24 8.15023 1.73 7.69023C2.21 7.23023 2.8 6.99023 3.49 6.99023C4.06 6.99023 4.56 7.14023 4.97 7.45023C5.39 7.75023 5.68 8.17023 5.84 8.71023H4.68C4.41 8.20023 4.02 7.95023 3.49 7.95023C3.08 7.95023 2.75 8.09023 2.49 8.37023C2.23 8.65023 2.1 8.99023 2.1 9.39023C2.1 9.79024 2.23 10.1302 2.5 10.4302C2.77 10.7302 3.1 10.8802 3.5 10.8802C4.04 10.8802 4.43 10.6302 4.68 10.1402H5.85Z" fill="#3387C5"/>
<path d="M10.1499 10.39C10.1499 10.86 9.99992 11.22 9.70992 11.47C9.41992 11.72 9.02992 11.85 8.54992 11.85C8.06992 11.85 7.64992 11.71 7.35992 11.43C7.06992 11.15 6.91992 10.76 6.91992 10.26H7.98992C7.98992 10.44 8.02992 10.59 8.11992 10.72C8.21992 10.86 8.35992 10.93 8.52992 10.93C8.68992 10.93 8.81992 10.88 8.91992 10.77C9.01992 10.66 9.06992 10.53 9.06992 10.37C9.06992 10.31 9.06992 10.26 9.03992 10.22C8.98992 10.09 8.77992 9.94 8.41992 9.76C7.95992 9.54 7.64992 9.36 7.49992 9.24C7.17992 8.98 7.01992 8.68 7.01992 8.33C7.01992 7.92 7.17992 7.59 7.49992 7.34C7.78992 7.12 8.15992 7 8.58992 7C9.01992 7 9.37992 7.12 9.65992 7.37C9.93992 7.63 10.0799 7.97 10.0799 8.4H9.02992C9.02992 8.24 8.98992 8.12 8.90992 8.02C8.82992 7.92 8.70992 7.87 8.55992 7.87C8.42992 7.87 8.31992 7.9 8.22992 7.97C8.12992 8.04 8.07992 8.14 8.07992 8.26C8.07992 8.45 8.22992 8.64 8.53992 8.82C8.83992 8.98 9.13992 9.14 9.43992 9.31C9.78992 9.52 10.0099 9.74 10.0899 9.98C10.1299 10.1 10.1499 10.23 10.1499 10.39Z" fill="#3387C5"/>
<path d="M15.0002 7L13.4002 11.85H12.3002L10.7002 7H11.8102L12.8502 10.55L13.9002 7H15.0102H15.0002Z" fill="#3387C5"/>
</g>
<defs>
<clipPath id="clip0_5610_1914">
<rect width="14" height="14" fill="white" transform="translate(1 1)"/>
</clipPath>
</defs>
</svg>
