<svg width="16" height="16" viewBox="0 0 16 16" fill="none" xmlns="http://www.w3.org/2000/svg">
<g clip-path="url(#clip0_5610_1951)">
<path d="M13 13V14H3V13H2V14.94C2 14.94 2.03 15 2.06 15H14V13H13Z" fill="#3387C5"/>
<path d="M3 6V2H10V5H13V6H14V4.59L10.41 1H2V6H3Z" fill="#3387C5"/>
<path d="M2.90023 10.5096C2.90023 11.4996 2.40023 11.9996 1.41023 11.9996C0.980234 11.9996 0.640234 11.8696 0.380234 11.6196C0.120234 11.3696 -0.00976562 10.8796 -0.00976562 10.4696H0.960234C0.960234 10.7996 1.19023 10.9496 1.44023 10.9496C1.44023 10.9496 1.92023 10.9196 1.92023 10.5196V7.55957H2.89023V10.4996L2.90023 10.5096Z" fill="#3388C6"/>
<path d="M6.40004 10.6904C6.40004 11.1104 6.27004 11.4304 6.01004 11.6604C5.75004 11.8904 5.41004 12.0004 4.98004 12.0004C4.55004 12.0004 4.18004 11.8704 3.93004 11.6204C3.67004 11.3704 3.54004 11.0204 3.54004 10.5704H4.49004C4.49004 10.7304 4.53004 10.8704 4.61004 10.9804C4.70004 11.1104 4.82004 11.1704 4.97004 11.1704C5.12004 11.1704 5.23004 11.1204 5.32004 11.0304C5.41004 10.9404 5.45004 10.8204 5.45004 10.6704C5.45004 10.6204 5.45004 10.5804 5.43004 10.5404C5.38004 10.4304 5.20004 10.2904 4.88004 10.1304C4.47004 9.93039 4.20004 9.77039 4.06004 9.66039C3.78004 9.43039 3.64004 9.15039 3.64004 8.84039C3.64004 8.47039 3.78004 8.17039 4.07004 7.95039C4.33004 7.75039 4.65004 7.65039 5.03004 7.65039C5.41004 7.65039 5.73004 7.76039 5.98004 7.98039C6.23004 8.21039 6.35004 8.52039 6.35004 8.90039H5.42004C5.42004 8.76039 5.38004 8.65039 5.31004 8.56039C5.24004 8.47039 5.14004 8.43039 5.00004 8.43039C4.88004 8.43039 4.79004 8.46039 4.71004 8.52039C4.62004 8.58039 4.58004 8.67039 4.58004 8.78039C4.58004 8.95039 4.71004 9.12039 4.98004 9.29039C5.25004 9.43039 5.51004 9.58039 5.78004 9.73039C6.09004 9.92039 6.28004 10.1204 6.35004 10.3304C6.38004 10.4304 6.40004 10.5604 6.40004 10.7004V10.6904Z" fill="#3388C6"/>
<path d="M8.93023 12.0002C8.32023 12.0002 7.81023 11.7902 7.38023 11.3702C6.95023 10.9502 6.74023 10.4302 6.74023 9.83016C6.74023 9.23016 6.95023 8.71016 7.38023 8.29016C7.81023 7.87016 8.32023 7.66016 8.93023 7.66016C9.54024 7.66016 10.0602 7.87016 10.4802 8.28016C10.9002 8.69016 11.1102 9.21016 11.1102 9.82016C11.1102 10.4302 10.9002 10.9502 10.4802 11.3702C10.0602 11.7902 9.54024 12.0002 8.93023 12.0002ZM8.93023 8.52016C8.58023 8.52016 8.29023 8.65016 8.05023 8.91016C7.81023 9.17016 7.70023 9.48016 7.70023 9.83016C7.70023 10.1802 7.82023 10.4902 8.05023 10.7502C8.29023 11.0102 8.58023 11.1502 8.93023 11.1502C9.28023 11.1502 9.58023 11.0202 9.82023 10.7502C10.0402 10.4902 10.1602 10.1902 10.1602 9.83016C10.1602 9.47016 10.0402 9.16016 9.81024 8.91016C9.58024 8.66016 9.29024 8.53016 8.93023 8.53016V8.52016Z" fill="#3388C6"/>
<path d="M15.0004 11.9203H14.1804L12.4904 9.07031V11.9203H11.6104V7.57031H12.4504L14.1304 10.4403V7.57031H15.0004V11.9203Z" fill="#3388C6"/>
</g>
<defs>
<clipPath id="clip0_5610_1951">
<rect width="15" height="14" fill="white" transform="translate(0 1)"/>
</clipPath>
</defs>
</svg>
