<svg width="16" height="16" viewBox="0 0 16 16" fill="none" xmlns="http://www.w3.org/2000/svg">
<path d="M12.96 12V13H2.95996V12H1.95996V14H13.96V12H12.96Z" fill="#3387C5"/>
<path d="M2.95996 5V1H9.95996V4H12.96V5H13.96V3.59L10.38 0H1.95996V5H2.95996Z" fill="#3387C5"/>
<path d="M7.9602 11H6.9602V8.15L5.7402 11H5.1802C5.1802 11 3.9502 8.03 3.9502 8.14V11H2.9502V6H3.9502L5.4502 9L6.9502 6H7.9502V11H7.9602Z" fill="#3388C6"/>
<path d="M11.5028 10.9945C10.8097 10.9945 9.55004 11 9 10.9945C9.00011 10.4395 9.00011 9.1909 9.00011 8.49168C9.00011 7.79245 8.99996 6.98779 9.00003 6.00001C9.00003 6.00001 10.8097 6 11.5028 6C12.1959 6 12.7954 6.23862 13.2794 6.71587C13.758 7.19312 14 7.7869 14 8.49168C14 9.19645 13.758 9.79023 13.2794 10.273C12.8009 10.7558 12.2069 11 11.5028 11V10.9945ZM11.5028 6.98779C11.1068 6.98779 10.3751 6.98779 10.0947 6.98779C10.1001 7.26526 10.0947 8.08657 10.0947 8.49168C10.0947 8.89678 10.1001 9.45172 10.0947 10.0067C10.5017 10.0067 11.1068 10.0067 11.5028 10.0067C11.8988 10.0067 12.2454 9.85128 12.5204 9.54606C12.7789 9.25194 12.9054 8.89678 12.9054 8.48613C12.9054 8.07547 12.7734 7.72031 12.5094 7.42619C12.2454 7.13762 11.9098 6.98779 11.5028 6.98779Z" fill="#3387C5"/>
</svg>
