<svg width="16" height="16" viewBox="0 0 16 16" fill="none" xmlns="http://www.w3.org/2000/svg">
<g clip-path="url(#clip0_3815_10118)">
<path d="M13 13V14H3V13H2V14.94C2 14.94 2.03 15 2.06 15H14V13H13Z" fill="#3387C5"/>
<path d="M3 6V2H10V5H13V6H14V4.59L10.41 1H2V6H3Z" fill="#3387C5"/>
<path d="M5.00977 10.4927C5.00977 10.9764 4.87362 11.3476 4.59648 11.6063C4.32419 11.865 3.95952 12 3.51706 12C3.0746 12 2.68075 11.8538 2.41333 11.5669C2.14105 11.2745 2.00977 10.8751 2.00977 10.3633H3.01139C3.01139 10.5489 3.05028 10.7064 3.13294 10.8358C3.22532 10.982 3.35174 11.0551 3.5122 11.0551C3.67265 11.0551 3.78448 10.9989 3.87686 10.892C3.96925 10.7852 4.01301 10.6445 4.01301 10.4814C4.01301 10.4252 4.00328 10.3746 3.9887 10.3296C3.94007 10.2002 3.74558 10.0427 3.41009 9.85714C2.98221 9.62655 2.69534 9.44657 2.54947 9.31721C2.25288 9.04724 2.10701 8.73228 2.10701 8.37233C2.10701 7.94488 2.25774 7.6018 2.5592 7.34871C2.83148 7.11811 3.16698 7 3.57054 7C3.97411 7 4.3096 7.12936 4.56244 7.38245C4.82014 7.65242 4.95142 8.00675 4.95142 8.44544H3.97897C3.97897 8.28234 3.94007 8.15298 3.86714 8.05174C3.79421 7.95051 3.68238 7.89989 3.54137 7.89989C3.41981 7.89989 3.31771 7.93363 3.23505 8.00113C3.14267 8.07424 3.09404 8.17548 3.09404 8.30484C3.09404 8.50169 3.23505 8.69291 3.51706 8.88976C3.79907 9.05287 4.07622 9.2216 4.35336 9.39033C4.67913 9.60967 4.88335 9.84027 4.95628 10.0821C4.99518 10.2002 5.00977 10.3465 5.00977 10.5096V10.4927Z" fill="#3388C6"/>
<path d="M11.0098 11.0843V12C10.4524 12 10.0412 11.8652 9.78141 11.5899C9.38098 11.8596 8.93725 12 8.43942 12C7.76301 12 7.19483 11.7584 6.71864 11.2697C6.24786 10.7865 6.00977 10.191 6.00977 9.48876C6.00977 8.78652 6.24786 8.19663 6.71864 7.7191C7.18942 7.23595 7.76301 7 8.43942 7C9.11583 7 9.69483 7.23595 10.1602 7.71348C10.6256 8.19101 10.8583 8.7809 10.8583 9.48876C10.8583 10.0393 10.7121 10.5337 10.4145 10.9607C10.5931 11.0393 10.7933 11.0787 11.0044 11.0787L11.0098 11.0843ZM8.44483 7.98876C8.06063 7.98876 7.73596 8.14045 7.4708 8.4382C7.21106 8.73595 7.07578 9.08989 7.07578 9.49438C7.07578 9.89888 7.20565 10.2528 7.4708 10.5562C7.73054 10.8596 8.05522 11.0112 8.44483 11.0112C8.83444 11.0112 9.16994 10.8596 9.42968 10.5506C9.6786 10.2584 9.80306 9.90449 9.80306 9.48876C9.80306 9.07303 9.67319 8.7191 9.41886 8.42697C9.16453 8.13483 8.83985 7.98876 8.44483 7.98876Z" fill="#3388C6"/>
<path d="M15 12H12.0098V7H13V11H15V12Z" fill="#3388C6"/>
</g>
<defs>
<clipPath id="clip0_3815_10118">
<rect width="13" height="14" fill="white" transform="translate(2 1)"/>
</clipPath>
</defs>
</svg>
