<svg width="16" height="16" viewBox="0 0 16 16" fill="none" xmlns="http://www.w3.org/2000/svg">
<path d="M13 13V14H3V13H2V15H14V13H13Z" fill="#3387C5"/>
<path d="M3 6V2H10V5H13V6H14V4.59L10.41 1H2V6H3Z" fill="#3387C5"/>
<path d="M1.39079e-06 7L3 7L5 7L5 8L3 8L3 12L2 12L2 8L1.30337e-06 8L1.39079e-06 7Z" fill="#3388C6"/>
<path d="M11 7L14 7L16 7L16 8L14 8L14 12L13 12L13 8L11 8L11 7Z" fill="#3388C6"/>
<path d="M10 12H9L6 7H7L10 12Z" fill="#3388C6"/>
<path d="M6 12H7L10 7H9L6 12Z" fill="#3388C6"/>
</svg>
