<svg width="16" height="16" viewBox="0 0 16 16" fill="none" xmlns="http://www.w3.org/2000/svg">
<g clip-path="url(#clip0_4857_735)">
<path d="M8.5 4H7.5V8.32H8.5V4Z" fill="#338ECC"/>
<path d="M7.6499 7.65039L3.1499 12.1504L3.8499 12.8504L8.3499 8.35039L7.6499 7.65039Z" fill="#338ECC"/>
<path d="M8 2C11.31 2 14 4.69 14 8C14 11.31 11.31 14 8 14C4.69 14 2 11.31 2 8C2 4.69 4.69 2 8 2ZM8 1C4.13 1 1 4.13 1 8C1 11.87 4.13 15 8 15C11.87 15 15 11.87 15 8C15 4.13 11.87 1 8 1Z" fill="#338ECC"/>
</g>
<defs>
<clipPath id="clip0_4857_735">
<rect width="14" height="14" fill="white" transform="translate(1 1)"/>
</clipPath>
</defs>
</svg>
