<svg width="16" height="16" viewBox="0 0 16 16" fill="none" xmlns="http://www.w3.org/2000/svg">
<g clip-path="url(#clip0_4857_847)">
<path d="M2 4V11H3V12H0V11H1V5H0V4H2Z" fill="#338ECC"/>
<path d="M3.99998 11.9998V10.9998L6.59998 8.43977C7.26998 7.79977 7.90998 6.79977 7.90998 6.36977C7.90998 5.48977 7.35998 5.00977 6.48998 5.00977C5.61998 5.00977 5.02998 5.96977 5.02998 7.00977H3.98998V6.96977C3.98998 6.21977 4.19998 5.20977 4.62998 4.72977C5.05998 4.24977 5.73998 4.00977 6.48998 4.00977C7.23998 4.00977 7.97998 4.21977 8.38998 4.63977C8.79998 5.05977 8.98998 5.61977 8.98998 6.32977C8.98998 7.03977 8.31998 8.14977 7.59998 8.81977L5.36998 10.9998H8.97998V11.9998H3.97998H3.99998Z" fill="#338ECC"/>
<path d="M10 10H11.1C11.15 11 11.67 10.97 12.51 10.97C12.93 10.97 13.26 10.85 13.51 10.6C13.76 10.35 13.89 10.02 13.89 9.6C13.89 8.46 13.4 7.88 12.42 7.88C12.31 7.88 12.07 7.89 11.71 7.99L11.29 7.37L14.01 4.99H10.43V4H14.99L15.01 5L13.02 6.97C14.35 7.16 15.01 8.02 15.01 9.54C15.01 10.21 14.77 10.79 14.29 11.28C13.81 11.77 13.23 12.01 12.56 12.01C11.84 12.01 11.01 12.06 10.56 11.54C10.14 11.05 10.01 10.75 10.01 10.01L10 10Z" fill="#338ECC"/>
</g>
<defs>
<clipPath id="clip0_4857_847">
<rect width="15" height="8" fill="white" transform="translate(0 4)"/>
</clipPath>
</defs>
</svg>
