<svg width="16" height="16" viewBox="0 0 16 16" fill="none" xmlns="http://www.w3.org/2000/svg">
<g clip-path="url(#clip0_5465_1953)">
<path d="M9.73 4L12 6.27V12H4V4H9.73ZM10.14 3H3V13H13V5.86L10.14 3Z" fill="#4FA143"/>
<path d="M6 4H5V7H6V4Z" fill="#4FA143"/>
<path d="M9 6H5V7H9V6Z" fill="#4FA143"/>
<path d="M8 3H7V4H8V3Z" fill="#4FA143"/>
<path d="M9 3.70996H8V6.99996H9V3.70996Z" fill="#4FA143"/>
<path d="M2 1H1V4H2V1Z" fill="#4FA143"/>
<path d="M4 1H1V2H4V1Z" fill="#4FA143"/>
<path d="M15 1H12V2H15V1Z" fill="#4FA143"/>
<path d="M15 1H14V4H15V1Z" fill="#4FA143"/>
<path d="M15 12H14V15H15V12Z" fill="#4FA143"/>
<path d="M15 14H12V15H15V14Z" fill="#4FA143"/>
<path d="M4 14H1V15H4V14Z" fill="#4FA143"/>
<path d="M2 12H1V15H2V12Z" fill="#4FA143"/>
</g>
<defs>
<clipPath id="clip0_5465_1953">
<rect width="14" height="14" fill="white" transform="translate(1 1)"/>
</clipPath>
</defs>
</svg>
