<svg width="16" height="16" viewBox="0 0 16 16" fill="none" xmlns="http://www.w3.org/2000/svg">
<g clip-path="url(#clip0_3808_2572)">
<path d="M8 3C11.08 3 12.8 3.86 13 4.22V11.78C12.8 12.14 11.08 13 8 13C4.92 13 3.2 12.14 3 11.78V4.22C3.2 3.86 4.92 3 8 3ZM8 2C4.69 2 2 2.98 2 4.19V11.82C2 13.03 4.69 14.01 8 14.01C11.31 14.01 14 13.03 14 11.82V4.19C14 2.98 11.31 2 8 2Z" fill="#3387C5"/>
<path d="M8 3C11.05 3 13 4.18 13 5C13 5.82 11.05 7 8 7C4.95 7 3 5.82 3 5C3 4.18 4.95 3 8 3ZM8 2C4.69 2 2 3.34 2 5C2 6.66 4.69 8 8 8C11.31 8 14 6.66 14 5C14 3.34 11.31 2 8 2Z" fill="#3387C5"/>
<path d="M13.71 9.14965C13.58 9.41965 13.38 9.64965 13.12 9.80965C12.85 10.2096 11.12 11.0696 8 11.0696C4.88 11.0696 3.14 10.2096 2.88 9.80965C2.6 9.67965 2.39 9.46965 2.23 9.20965C2.08 9.39965 2 9.59965 2 9.80965C2 11.0196 4.69 11.9996 8 11.9996C11.31 11.9996 14 11.0196 14 9.80965C14 9.57965 13.9 9.34965 13.71 9.13965V9.14965Z" fill="#3387C5"/>
<path d="M13.71 7.14965C13.58 7.41965 13.38 7.64965 13.12 7.80965C12.85 8.20965 11.12 9.06965 8 9.06965C4.88 9.06965 3.14 8.20965 2.88 7.80965C2.6 7.67965 2.39 7.46965 2.23 7.20965C2.08 7.39965 2 7.59965 2 7.80965C2 9.01965 4.69 9.99965 8 9.99965C11.31 9.99965 14 9.01965 14 7.80965C14 7.57965 13.9 7.34965 13.71 7.13965V7.14965Z" fill="#3387C5"/>
</g>
<defs>
<clipPath id="clip0_3808_2572">
<rect width="12" height="12" fill="white" transform="translate(2 2)"/>
</clipPath>
</defs>
</svg>
