<svg width="16" height="16" viewBox="0 0 16 16" fill="none" xmlns="http://www.w3.org/2000/svg">
<g clip-path="url(#clip0_3808_2269)">
<path d="M8 2C11.74 2 13.78 2.99 14 3.4V12.6C13.78 13.01 11.74 14 8 14C4.26 14 2.22 13.01 2 12.6V3.4C2.22 2.99 4.26 2 8 2ZM8 1C4.13 1 1 2.06 1 3.37V12.63C1 13.94 4.13 15 8 15C11.87 15 15 13.94 15 12.63V3.37C15 2.06 11.87 1 8 1Z" fill="#3387C5"/>
<path d="M8 2C11.64 2 13.67 2.94 13.98 3.37C13.67 3.8 11.64 4.74 8 4.74C4.36 4.74 2.33 3.8 2.02 3.37C2.33 2.94 4.36 2 8 2ZM8 1C4.13 1 1 2.06 1 3.37C1 4.68 4.13 5.74 8 5.74C11.87 5.74 15 4.68 15 3.37C15 2.06 11.87 1 8 1Z" fill="#3387C5"/>
<path d="M14.6602 11.9102C14.5002 12.2002 14.2702 12.4502 13.9702 12.6302C13.6602 13.0602 11.6302 14.0002 7.99023 14.0002C4.35023 14.0002 2.32023 13.0602 2.01023 12.6302C1.69023 12.4902 1.44023 12.2602 1.26023 11.9902C1.09023 12.2002 0.990234 12.4102 0.990234 12.6402C0.990234 13.9502 4.12023 15.0102 7.99023 15.0102C11.8602 15.0102 14.9902 13.9502 14.9902 12.6402C14.9902 12.3902 14.8702 12.1402 14.6502 11.9202L14.6602 11.9102Z" fill="#3387C5"/>
<path d="M14.6602 8.91016C14.5002 9.20016 14.2702 9.45016 13.9702 9.63016C13.6602 10.0602 11.6302 11.0002 7.99023 11.0002C4.35023 11.0002 2.32023 10.0602 2.01023 9.63016C1.69023 9.49016 1.44023 9.26016 1.26023 8.99016C1.09023 9.20016 0.990234 9.41016 0.990234 9.64016C0.990234 10.9502 4.12023 12.0102 7.99023 12.0102C11.8602 12.0102 14.9902 10.9502 14.9902 9.64016C14.9902 9.39016 14.8702 9.14016 14.6502 8.92016L14.6602 8.91016Z" fill="#3387C5"/>
<path d="M14.6602 5.91016C14.5002 6.20016 14.2702 6.45016 13.9702 6.63016C13.6602 7.06016 11.6302 8.00016 7.99023 8.00016C4.35023 8.00016 2.32023 7.06016 2.01023 6.63016C1.69023 6.49016 1.44023 6.26016 1.26023 5.99016C1.09023 6.20016 0.990234 6.41016 0.990234 6.64016C0.990234 7.95016 4.12023 9.01016 7.99023 9.01016C11.8602 9.01016 14.9902 7.95016 14.9902 6.64016C14.9902 6.39016 14.8702 6.14016 14.6502 5.92016L14.6602 5.91016Z" fill="#3387C5"/>
<path d="M11.5 16C13.9853 16 16 13.9853 16 11.5C16 9.01472 13.9853 7 11.5 7C9.01472 7 7 9.01472 7 11.5C7 13.9853 9.01472 16 11.5 16Z" fill="#3387C5"/>
<path d="M12 9H9V12L12 15L15 12L12 9ZM11 12C10.45 12 10 11.55 10 11C10 10.45 10.45 10 11 10C11.55 10 12 10.45 12 11C12 11.55 11.55 12 11 12Z" fill="white"/>
</g>
<defs>
<clipPath id="clip0_3808_2269">
<rect width="15" height="15" fill="white" transform="translate(1 1)"/>
</clipPath>
</defs>
</svg>
