<svg width="16" height="16" viewBox="0 0 16 16" fill="none" xmlns="http://www.w3.org/2000/svg">
<g clip-path="url(#clip0_3814_4712)">
<path d="M6.07 15C5.13 15 4.23 14.53 3.66 13.75L4.47 13.16C4.85 13.69 5.43 13.99 6.06 13.99C7.01 13.99 7.83 13.28 8.02 12.31V3.52C8.29 2.04 9.53 1 10.95 1C11.89 1 12.79 1.47 13.36 2.25L12.55 2.84C12.17 2.31 11.59 2.01 10.96 2.01C10.01 2.01 9.19 2.72 9 3.69V12.49C8.73 13.97 7.49 15.01 6.07 15.01V15Z" fill="#3387C5"/>
<path d="M12 6H5V7H12V6Z" fill="#3387C5"/>
</g>
<defs>
<clipPath id="clip0_3814_4712">
<rect width="9.7" height="14" fill="white" transform="translate(3 1)"/>
</clipPath>
</defs>
</svg>
