<svg width="16" height="16" viewBox="0 0 16 16" fill="none" xmlns="http://www.w3.org/2000/svg">
<g clip-path="url(#clip0_3814_5872)">
<path d="M11 8H5V9H11V8Z" fill="#3387C5"/>
<path d="M7 12.1H6C3.79 12.1 2 10.49 2 8.5C2 6.51 3.79 4.9 6 4.9H7V4H6C3.24 4 1 6.01 1 8.5C1 10.99 3.24 13 6 13H7V12.1Z" fill="#3387C5"/>
<path d="M10 4H9V4.9H10C12.21 4.9 14 6.51 14 8.5C14 10.49 12.21 12.1 10 12.1H9V13H10C12.76 13 15 10.99 15 8.5C15 6.01 12.76 4 10 4Z" fill="#3387C5"/>
</g>
<defs>
<clipPath id="clip0_3814_5872">
<rect width="14" height="9" fill="white" transform="translate(1 4)"/>
</clipPath>
</defs>
</svg>
