<svg width="16" height="16" viewBox="0 0 16 16" fill="none" xmlns="http://www.w3.org/2000/svg">
<g clip-path="url(#clip0_3814_4335)">
<path d="M11.5 16C13.9853 16 16 13.9853 16 11.5C16 9.01472 13.9853 7 11.5 7C9.01472 7 7 9.01472 7 11.5C7 13.9853 9.01472 16 11.5 16Z" fill="#ED8000"/>
<path d="M7.57 13H2V5H14V8.15C14.38 8.39 14.71 8.68 15 9.01V4H8.5L6.5 2H1V14H7.88C7.74 13.69 7.63 13.35 7.57 13Z" fill="#ED8000"/>
<path d="M12 9H11V14H12V9Z" fill="white"/>
<path d="M9 11V12H14V11H9Z" fill="white"/>
</g>
<defs>
<clipPath id="clip0_3814_4335">
<rect width="15" height="14" fill="white" transform="translate(1 2)"/>
</clipPath>
</defs>
</svg>
