<svg width="16" height="16" viewBox="0 0 16 16" fill="none" xmlns="http://www.w3.org/2000/svg">
<g clip-path="url(#clip0_3815_6850)">
<path d="M7 3H2V8H7V3Z" fill="#3387C5"/>
<path d="M13 3H8V8H13V3Z" fill="#3387C5"/>
<path d="M7 9H2V14H7V9Z" fill="#3387C5"/>
<path d="M13 9H8V14H13V9Z" fill="#F38400"/>
<path d="M6 5H3V6H6V5Z" fill="white"/>
<path d="M12 5H9V6H12V5Z" fill="white"/>
<path d="M12 10H9V11H12V10Z" fill="white"/>
<path d="M12 12H9V13H12V12Z" fill="white"/>
<path d="M10 4V7H11V4H10Z" fill="white"/>
<path d="M4 10H3V11H4V10Z" fill="white"/>
<path d="M6 10H5V11H6V10Z" fill="white"/>
<path d="M4 12H3V13H4V12Z" fill="white"/>
<path d="M6 12H5V13H6V12Z" fill="white"/>
<path d="M5 11H4V12H5V11Z" fill="white"/>
</g>
<defs>
<clipPath id="clip0_3815_6850">
<rect width="11" height="11" fill="white" transform="translate(2 3)"/>
</clipPath>
</defs>
</svg>
