<svg width="16" height="16" viewBox="0 0 16 16" fill="none" xmlns="http://www.w3.org/2000/svg">
<g clip-path="url(#clip0_3815_10035)">
<path d="M11 14V2H10V14H11Z" fill="#338ECC"/>
<path d="M15 2H6V3H15V2Z" fill="#338ECC"/>
<path d="M13 13H8V14H13V13Z" fill="#338ECC"/>
<path d="M15 6V2.5H14L15 6Z" fill="#338ECC"/>
<path d="M6 6V2.5H7L6 6Z" fill="#338ECC"/>
<path d="M2 10H1V11H2V10Z" fill="#338ECC"/>
<path d="M3 9H2V10H3V9Z" fill="#338ECC"/>
<path d="M3 11H2V12H3V11Z" fill="#338ECC"/>
<path d="M4 12H3V13H4V12Z" fill="#338ECC"/>
<path d="M4 8H3V9H4V8Z" fill="#338ECC"/>
<path d="M7 11H8V10H7V11Z" fill="#338ECC"/>
<path d="M6 12H7V11H6V12Z" fill="#338ECC"/>
<path d="M6 10H7V9H6V10Z" fill="#338ECC"/>
<path d="M5 9H6V8H5V9Z" fill="#338ECC"/>
<path d="M5 13H6V12H5V13Z" fill="#338ECC"/>
</g>
<defs>
<clipPath id="clip0_3815_10035">
<rect width="14" height="12" fill="white" transform="translate(1 2)"/>
</clipPath>
</defs>
</svg>
