<svg width="16" height="16" viewBox="0 0 16 16" fill="none" xmlns="http://www.w3.org/2000/svg">
<g clip-path="url(#clip0_5465_1995)">
<path d="M12.9893 5.21199L12.2822 4.50488L5.91827 10.8688L6.62537 11.576L12.9893 5.21199Z" fill="#4FA143"/>
<path d="M8 2C11.31 2 14 4.69 14 8C14 11.31 11.31 14 8 14C4.69 14 2 11.31 2 8C2 4.69 4.69 2 8 2ZM8 1C4.13 1 1 4.13 1 8C1 11.87 4.13 15 8 15C11.87 15 15 11.87 15 8C15 4.13 11.87 1 8 1Z" fill="#4FA143"/>
<path d="M3.80476 7.33L3.09766 8.03711L6.63319 11.5726L7.3403 10.8655L3.80476 7.33Z" fill="#4FA143"/>
</g>
<defs>
<clipPath id="clip0_5465_1995">
<rect width="14" height="14" fill="white" transform="translate(1 1)"/>
</clipPath>
</defs>
</svg>
