<svg width="16" height="16" viewBox="0 0 16 16" fill="none" xmlns="http://www.w3.org/2000/svg">
<g clip-path="url(#clip0_3808_2802)">
<path d="M11.5 16C13.9853 16 16 13.9853 16 11.5C16 9.01472 13.9853 7 11.5 7C9.01472 7 7 9.01472 7 11.5C7 13.9853 9.01472 16 11.5 16Z" fill="#3387C5"/>
<path d="M10.41 1H2V15H14V4.59L10.41 1ZM13 14H3V2H10V5H13V14Z" fill="#3387C5"/>
<path d="M12 9H11V12H12V9Z" fill="white"/>
<path d="M12 13H11V14H12V13Z" fill="white"/>
</g>
<defs>
<clipPath id="clip0_3808_2802">
<rect width="14" height="15" fill="white" transform="translate(2 1)"/>
</clipPath>
</defs>
</svg>
