<svg width="16" height="16" viewBox="0 0 16 16" fill="none" xmlns="http://www.w3.org/2000/svg">
<path d="M2.68752 2.13867L1.99562 2.86067L12.5002 15.0004L13.1921 14.2784L2.68752 2.13867Z" fill="#CA4827"/>
<path d="M11 1H10V4.5H11V1Z" fill="#CA4827"/>
<path d="M5.99805 1H4.99805V3L6.99805 5H11.998V9.52L10.773 10.3L11.498 11L12.998 10V4H5.99805V1Z" fill="#CA4827"/>
<path d="M3.79805 4.5L3 4L2.99805 10L5.99805 12V15H9.99805V12L10.723 11.7L9.99805 11C9.99805 11 9.89203 10.8086 9.37805 11.22C9.23164 11.3372 9.00305 11.52 9.00305 11.52V14H7.00305V11.52L6.62805 11.22L4.00305 9.52L4.005 5H4.845L3.805 4L3.79805 4.5Z" fill="#CA4827"/>
</svg>
