<svg width="16" height="16" viewBox="0 0 16 16" fill="none" xmlns="http://www.w3.org/2000/svg">
<path d="M8 14H7V11.59L6.71 11.29L4 9.59V5H12V6H13V4H3V10L6 12V15H9L8 14Z" fill="#3387C5"/>
<path d="M6 1H5V4H6V1Z" fill="#3387C5"/>
<path d="M11 1H10V4H11V1Z" fill="#3387C5"/>
<path d="M13 10V7L15 8.5L13 10Z" fill="#3387C5"/>
<path d="M13 9V8H11C9 8 9 9.9 9 11H10V10C10 9.45 10.45 9 11 9H13Z" fill="#3387C5"/>
<path d="M11 12V15L9 13.5L11 12Z" fill="#3387C5"/>
<path d="M11 13V14H13C15 14 15 12.1 15 11H14V12C14 12.55 13.55 13 13 13H11Z" fill="#3387C5"/>
</svg>
