<svg width="16" height="16" viewBox="0 0 16 16" fill="none" xmlns="http://www.w3.org/2000/svg">
<g clip-path="url(#clip0_6364_2381)">
<path d="M12.7783 8.98535L6.80371 14.5039H5.5V13.2188L11.3379 7.86816L11.3457 7.86133L11.5 7.70703L12.7783 8.98535Z" stroke="#338ECC"/>
<mask id="path-2-inside-1_6364_2381" fill="white">
<path d="M13.4798 5.28809C13.2344 5.28809 12.9891 5.38424 12.7966 5.57174L12.1182 6.24962L14.1583 8.28809L14.8367 7.6102C15.212 7.2352 15.212 6.62462 14.8367 6.24962L14.1583 5.57174C13.9706 5.38424 13.7252 5.28809 13.475 5.28809H13.4798Z"/>
</mask>
<path d="M12.7966 5.57174L11.401 4.13918L11.3919 4.14801L11.3829 4.15696L12.7966 5.57174ZM12.1182 6.24962L10.7045 4.83484L9.2886 6.24962L10.7045 7.6644L12.1182 6.24962ZM14.1583 8.28809L12.7446 9.70287L14.1583 11.1154L15.5719 9.70287L14.1583 8.28809ZM14.8367 7.6102L16.2503 9.02498L16.2503 9.02498L14.8367 7.6102ZM14.8367 6.24962L16.2503 4.83484L16.2503 4.83484L14.8367 6.24962ZM14.1583 5.57174L12.7446 6.98652L12.7446 6.98652L14.1583 5.57174ZM13.4798 5.28809V3.28809C12.7071 3.28809 11.9626 3.59202 11.401 4.13918L12.7966 5.57174L14.1922 7.0043C14.0155 7.17646 13.7618 7.28809 13.4798 7.28809V5.28809ZM12.7966 5.57174L11.3829 4.15696L10.7045 4.83484L12.1182 6.24962L13.5318 7.6644L14.2102 6.98652L12.7966 5.57174ZM12.1182 6.24962L10.7045 7.6644L12.7446 9.70287L14.1583 8.28809L15.5719 6.87331L13.5318 4.83484L12.1182 6.24962ZM14.1583 8.28809L15.5719 9.70287L16.2503 9.02498L14.8367 7.6102L13.423 6.19542L12.7446 6.8733L14.1583 8.28809ZM14.8367 7.6102L16.2503 9.02498C17.4074 7.8688 17.4074 5.99102 16.2503 4.83484L14.8367 6.24962L13.423 7.6644C13.0165 7.25823 13.0165 6.6016 13.423 6.19542L14.8367 7.6102ZM14.8367 6.24962L16.2503 4.83484L15.5719 4.15696L14.1583 5.57174L12.7446 6.98652L13.423 7.66441L14.8367 6.24962ZM14.1583 5.57174L15.5719 4.15696C15.0006 3.58609 14.243 3.28809 13.475 3.28809V5.28809V7.28809C13.2074 7.28809 12.9406 7.18239 12.7446 6.98652L14.1583 5.57174ZM13.475 5.28809V7.28809H13.4798V5.28809V3.28809H13.475V5.28809Z" fill="#3387C5" mask="url(#path-2-inside-1_6364_2381)"/>
<path d="M6 10V9H1V10H6Z" fill="#3387C5"/>
<path d="M9 6V5L1 5V6H9Z" fill="#3387C5"/>
<path d="M13 2V1L1 1V2L13 2Z" fill="#3387C5"/>
</g>
<defs>
<clipPath id="clip0_6364_2381">
<rect width="16" height="16" fill="white"/>
</clipPath>
</defs>
</svg>
