<svg width="16" height="16" viewBox="0 0 16 16" fill="none" xmlns="http://www.w3.org/2000/svg">
<g clip-path="url(#clip0_3815_9840)">
<path d="M7 4H5V5H7V4Z" fill="#3387C5"/>
<path d="M7 7H5V8H7V7Z" fill="#3387C5"/>
<path d="M7 10H5V11H7V10Z" fill="#3387C5"/>
<path d="M11 4H8V5H11V4Z" fill="#3387C5"/>
<path d="M11 7H8V8H11V7Z" fill="#3387C5"/>
<path d="M11 10H8V11H11V10Z" fill="#3387C5"/>
<path d="M15 2.5C15 1.67 14.33 1 13.5 1H13H5C3.9 1 3 1.9 3 3V12H1V13C1 13.93 1.64 14.71 2.5 14.93L3 15H11C12.1 15 13 14.1 13 13V3H15V2.5ZM12 13C12 13.55 11.55 14 11 14H10C9.45 14 9 13.55 9 13V12H4V3C4 2.45 4.45 2 5 2H12V13Z" fill="#3387C5"/>
</g>
<defs>
<clipPath id="clip0_3815_9840">
<rect width="14" height="14" fill="white" transform="translate(1 1)"/>
</clipPath>
</defs>
</svg>
