<svg width="16" height="16" viewBox="0 0 16 16" fill="none" xmlns="http://www.w3.org/2000/svg">
<g clip-path="url(#clip0_3822_11201)">
<path d="M11 3H2V4H11V3Z" fill="#3387C5"/>
<path d="M9 5H8V6H9V5Z" fill="#3387C5"/>
<path d="M9 7H8V8H9V7Z" fill="#3387C5"/>
<path d="M9 9H8V10H9V9Z" fill="#3387C5"/>
<path d="M9 11H8V12H9V11Z" fill="#3387C5"/>
<path d="M9 13H8V14H9V13Z" fill="#3387C5"/>
<path d="M11 5H10V6H11V5Z" fill="#3387C5"/>
<path d="M13 5H12V6H13V5Z" fill="#3387C5"/>
<path d="M7 13L7 4H6L6 13H7Z" fill="#3387C5"/>
</g>
<defs>
<clipPath id="clip0_3822_11201">
<rect width="11" height="11" fill="white" transform="translate(2 3)"/>
</clipPath>
</defs>
</svg>
