<svg width="16" height="16" viewBox="0 0 16 16" fill="none" xmlns="http://www.w3.org/2000/svg">
<g clip-path="url(#clip0_3822_11394)">
<path d="M5 8H0L2.5 11L5 8Z" fill="#3387C5"/>
<path d="M8.5 2C4.91 2 2 4.91 2 8.5C2 8.69 2.01 8.88 2.03 9.07C2.25 8.98 2.5 8.93 2.79 8.93C2.88 8.93 2.96 8.95 3.04 8.95C3.03 8.8 3.01 8.65 3.01 8.5C3.01 5.47 5.48 3 8.51 3C11.54 3 14.01 5.47 14.01 8.5C14.01 11.53 11.54 14 8.51 14C7.17 14 5.94 13.52 4.99 12.72L4.28 13.43C5.42 14.41 6.89 15 8.51 15C12.1 15 15.01 12.09 15.01 8.5C15.01 4.91 12.09 2 8.5 2Z" fill="#3387C5"/>
<path d="M9 5H8V8H9V5Z" fill="#3387C5"/>
<path d="M8.5 7.5L5 11L5.71 11.71L9.21 8.21L8.5 7.5Z" fill="#3387C5"/>
</g>
<defs>
<clipPath id="clip0_3822_11394">
<rect width="15" height="13" fill="white" transform="translate(0 2)"/>
</clipPath>
</defs>
</svg>
