<svg width="16" height="16" viewBox="0 0 16 16" fill="none" xmlns="http://www.w3.org/2000/svg">
<g clip-path="url(#clip0_3822_11616)">
<path d="M10.41 1H2V15H14V4.59L10.41 1ZM13 14H3V2H10V5H13V14Z" fill="#3387C5"/>
<path d="M8 9H7V10H8V9Z" fill="#3387C5"/>
<path d="M7 10H6V11H7V10Z" fill="#3387C5"/>
<path d="M7 8H6V9H7V8Z" fill="#3387C5"/>
<path d="M9 10H8V11H9V10Z" fill="#3387C5"/>
<path d="M9 8H8V9H9V8Z" fill="#3387C5"/>
<path d="M10 13H11V6H10V13Z" fill="#3387C5"/>
<path d="M9 7H10V6H9V7Z" fill="#3387C5"/>
<path d="M9 13H10V12H9V13Z" fill="#3387C5"/>
<path d="M5 6H4V13H5V6Z" fill="#3387C5"/>
<path d="M6 12H5V13H6V12Z" fill="#3387C5"/>
<path d="M6 6H5V7H6V6Z" fill="#3387C5"/>
</g>
<defs>
<clipPath id="clip0_3822_11616">
<rect width="12" height="14" fill="white" transform="translate(2 1)"/>
</clipPath>
</defs>
</svg>
