<svg width="16" height="16" viewBox="0 0 16 16" fill="none" xmlns="http://www.w3.org/2000/svg">
<g clip-path="url(#clip0_3806_2155)">
<path d="M8 3C11.86 3 15 6.14 15 10C15 11.04 14.77 12.06 14.32 13H1.68C1.23 12.06 1 11.04 1 10C1 6.14 4.14 3 8 3ZM8 2C3.58 2 0 5.58 0 10C0 11.46 0.4 12.82 1.08 14H14.92C15.6 12.82 16 11.46 16 10C16 5.58 12.42 2 8 2Z" fill="#3387C5"/>
<path d="M8.89969 11.0402C9.44969 9.6402 8.58969 7.7002 8.58969 7.7002C8.58969 7.7002 6.64969 8.5502 6.09969 9.9502C5.79969 10.7202 6.17969 11.5902 6.94969 11.8902C7.71969 12.1902 8.58969 11.8102 8.88969 11.0402H8.89969Z" fill="#3387C5"/>
<path d="M8 3H7V6H8V3Z" fill="#3387C5"/>
<path d="M1 11V12H3.5V11H1Z" fill="#3387C5"/>
<path d="M12.5 11V12H15V11H12.5Z" fill="#3387C5"/>
<path d="M11.6464 7.28703L12.3535 7.99414L14.4748 5.87282L13.7677 5.16571L11.6464 7.28703Z" fill="#3387C5"/>
<path d="M2.71004 5.18059L2.00293 5.8877L4.12425 8.00902L4.83136 7.30191L2.71004 5.18059Z" fill="#3387C5"/>
</g>
<defs>
<clipPath id="clip0_3806_2155">
<rect width="16" height="12" fill="white" transform="translate(0 2)"/>
</clipPath>
</defs>
</svg>
